<?xml version="1.0" encoding="UTF-8" standalone="no"?>
<svg
   version="1.1"
   x="0px"
   y="0px"
   viewBox="0 0 101.08696 55.434778"
   enable-background="new 0 0 100 100"
   xml:space="preserve"
   id="svg36"
   sodipodi:docname="fb-icon.svg"
   width="101.08696"
   height="55.434776"
   inkscape:version="1.3.2 (091e20e, 2023-11-25)"
   xmlns:inkscape="http://www.inkscape.org/namespaces/inkscape"
   xmlns:sodipodi="http://sodipodi.sourceforge.net/DTD/sodipodi-0.dtd"
   xmlns="http://www.w3.org/2000/svg"
   xmlns:svg="http://www.w3.org/2000/svg"><defs
     id="defs36" /><sodipodi:namedview
     id="namedview36"
     pagecolor="#ffffff"
     bordercolor="#000000"
     borderopacity="0.25"
     inkscape:showpageshadow="2"
     inkscape:pageopacity="0.0"
     inkscape:pagecheckerboard="0"
     inkscape:deskcolor="#d1d1d1"
     inkscape:zoom="6.44"
     inkscape:cx="49.92236"
     inkscape:cy="30.667702"
     inkscape:window-width="1392"
     inkscape:window-height="948"
     inkscape:window-x="0"
     inkscape:window-y="25"
     inkscape:window-maximized="0"
     inkscape:current-layer="svg36"><inkscape:page
       x="0"
       y="0"
       width="101.08696"
       height="55.434776"
       id="page36"
       margin="22.670807 0 47.04969"
       bleed="0" /></sodipodi:namedview><path
     fill="none"
     d="m 74.705,15.276472 c 0.346,1.661 -0.827,3.031 -2.617,3.062 v 0 c -1.794,0.029 -3.524,-1.296 -3.87,-2.956 l -1.043,-4.983 C 66.83,8.7374723 67.999,7.3674723 69.792,7.3374723 v 0 c 1.791,-0.029 3.524,1.295 3.87,2.9559997 z"
     id="path1"
     style="fill:#f9f9f9" /><path
     d="m 72.791,18.443472 c -0.224,0.05 -0.46,0.077 -0.7,0.082 -1.873,0.03 -3.692,-1.363 -4.057,-3.106 l -1.042,-4.983 c -0.315,-1.5159997 0.564,-2.8639997 2.094,-3.2049997 0.224,-0.05 0.461,-0.078 0.703,-0.082 1.872,-0.031 3.692,1.362 4.057,3.1049997 l 1.041,4.982 c 0.315,1.517 -0.565,2.865 -2.096,3.207 z M 69.167,7.5964723 c -1.342,0.299 -2.085,1.435 -1.809,2.7629997 l 1.042,4.984 c 0.329,1.576 1.981,2.835 3.685,2.808 0.215,-0.004 0.425,-0.027 0.625,-0.072 1.344,-0.3 2.088,-1.437 1.812,-2.765 l -1.042,-4.983 C 73.151,8.7554723 71.498,7.4964723 69.794,7.5234723 c -0.216,0.004 -0.427,0.028 -0.627,0.073 z"
     id="path2"
     style="fill:#f9f9f9" /><path
     fill="none"
     d="m 73.229,14.764472 c 0.287,1.154 -0.428,2.155 -1.596,2.235 v 0 c -1.17,0.08 -2.35,-0.793 -2.638,-1.948 l -0.864,-3.464 c -0.288,-1.154 0.427,-2.1559997 1.595,-2.2349997 v 0 c 1.171,-0.08 2.352,0.7939997 2.639,1.9479997 z"
     id="path3"
     style="fill:#f9f9f9" /><path
     d="m 59.146,29.585472 c -0.19,0.043 -0.385,-0.069 -0.44,-0.26 -0.058,-0.198 0.057,-0.406 0.254,-0.464 8.054,-2.343 9.892,-3.843 9.901,-4.184 -0.046,-0.202 0.082,-0.398 0.283,-0.443 0.201,-0.045 0.401,0.084 0.446,0.285 0.352,1.574 -5.473,3.62 -10.42,5.06 -0.01,0.003 -0.018,0.005 -0.024,0.006 z"
     id="path4"
     style="fill:#f9f9f9" /><path
     d="m 43.555,33.111472 c -0.006,0.002 -0.014,0.004 -0.021,0.005 -5.443,0.896 -12.008,1.619 -12.375,-0.023 -0.045,-0.202 0.082,-0.401 0.283,-0.446 0.201,-0.045 0.399,0.081 0.446,0.281 0.212,0.406 3.301,0.805 11.524,-0.549 0.203,-0.034 0.396,0.104 0.429,0.308 0.034,0.195 -0.093,0.382 -0.286,0.424 z"
     id="path5"
     style="fill:#f9f9f9" /><path
     d="m 45.193,45.497472 c -10e-4,0 -0.002,10e-4 -0.005,0.002 -17.656,2.998 -29.275,1.938 -30.325,-2.766 -0.011,-0.052 0.021,-0.102 0.071,-0.111 0.051,-0.012 0.101,0.02 0.112,0.07 1.01,4.528 12.83,5.558 30.112,2.621 0.051,-0.008 0.099,0.026 0.108,0.077 0.006,0.049 -0.024,0.097 -0.073,0.107 z"
     id="path6"
     style="fill:#f9f9f9" /><path
     d="m 62.158,41.713472 c -0.048,0.01 -0.096,-0.02 -0.109,-0.066 -0.015,-0.051 0.015,-0.102 0.064,-0.115 16.893,-4.688 27.154,-10.644 26.144,-15.173 -0.011,-0.05 0.021,-0.1 0.071,-0.11 0.051,-0.012 0.101,0.02 0.111,0.07 1.05,4.706 -9.019,10.604 -26.275,15.393 -0.002,0 -0.004,0.001 -0.006,0.001 z"
     id="path7"
     style="fill:#f9f9f9" /><path
     d="m 90.6,24.614472 c -0.051,0.011 -0.101,-0.021 -0.111,-0.071 -1.194,-5.354 -20.528,-5.971 -41.373,-1.32 -9.821,2.19 -19.604,5.508 -26.837,9.102 -7.389,3.671 -11.298,7.253 -10.724,9.827 0.012,0.05 -0.021,0.101 -0.071,0.111 -0.05,0.012 -0.1,-0.021 -0.112,-0.07 -0.603,-2.704 3.24,-6.269 10.823,-10.036 7.247,-3.599 17.045,-6.922 26.88,-9.116 9.795,-2.186 19.954,-3.313 27.871,-3.097 8.244,0.227 13.118,1.846 13.725,4.56 0.011,0.048 -0.021,0.098 -0.071,0.11 z"
     id="path8"
     style="fill:#f9f9f9" /><path
     d="m 11.944,44.696472 -0.664,-0.344 c 2.893,-5.568 19.883,-13.215 38.68,-17.407 18.481,-4.123 36.339,-4.418 41.538,-0.688 l -0.436,0.607 c -4.962,-3.561 -22.945,-3.205 -40.94,0.81 -18.605,4.151 -35.375,11.628 -38.178,17.022 z"
     id="path9"
     style="fill:#f9f9f9" /><path
     fill="none"
     d="m 59.898,43.595472 c 0.289,1.299 0.524,2.351 -2.103,2.937 l -9.158,2.043 c -1.451,0.323 -2.861,-0.467 -3.15,-1.764 l -2.58,-11.562 c -0.29,-1.299 0.651,-2.613 2.102,-2.938 l 9.158,-2.043 c 2.627,-0.585 2.861,0.467 3.151,1.766 z"
     id="path10"
     style="fill:#ffffff" /><path
     d="m 57.837,46.714472 -9.158,2.043 c -1.549,0.346 -3.062,-0.51 -3.374,-1.906 l -2.579,-11.562 c -0.312,-1.396 0.694,-2.813 2.243,-3.16 l 9.158,-2.042 c 2.81,-0.627 3.084,0.604 3.375,1.906 l 2.578,11.561 c 0.291,1.304 0.566,2.534 -2.243,3.16 z m -12.786,-14.219 c -1.348,0.301 -2.227,1.519 -1.96,2.715 l 2.58,11.561 c 0.266,1.194 1.58,1.923 2.927,1.622 l 9.159,-2.043 c 2.443,-0.546 2.251,-1.407 1.959,-2.713 l -2.578,-11.561 c -0.291,-1.306 -0.483,-2.168 -2.928,-1.624 z"
     id="path11"
     style="fill:#f9f9f9" /><path
     fill="none"
     d="m 62.467,43.090472 c 0.281,1.263 0.51,2.285 -0.767,2.57 v 0 c -1.277,0.285 -1.506,-0.738 -1.788,-2 l -2.607,-11.691 c -0.281,-1.263 -0.51,-2.285 0.768,-2.57 v 0 c 1.277,-0.284 1.504,0.737 1.786,2.001 z"
     id="path12"
     style="fill:#f9f9f9" /><path
     d="m 61.74,45.843472 c -1.459,0.325 -1.727,-0.874 -2.01,-2.143 l -2.608,-11.69 c -0.283,-1.27 -0.55,-2.468 0.909,-2.794 1.459,-0.325 1.727,0.874 2.01,2.143 l 2.607,11.691 c 0.285,1.269 0.551,2.468 -0.908,2.793 z m -3.628,-16.261 c -1.046,0.233 -0.933,0.966 -0.625,2.347 l 2.608,11.692 c 0.308,1.381 0.518,2.091 1.563,1.857 1.046,-0.232 0.933,-0.965 0.625,-2.347 l -2.608,-11.691 c -0.307,-1.382 -0.516,-2.092 -1.563,-1.858 z"
     id="path13"
     style="fill:#ffffff" /><path
     fill="none"
     d="m 73.695,14.230472 c 0.287,1.155 -0.428,2.156 -1.596,2.235 v 0 c -1.17,0.08 -2.351,-0.794 -2.638,-1.947 l -0.865,-3.465 C 68.309,9.8994723 69.023,8.8984723 70.193,8.8194723 v 0 c 1.169,-0.08 2.351,0.793 2.638,1.9469997 z"
     id="path14"
     style="fill:#ffffff" /><circle
     cx="30.033001"
     cy="30.502474"
     r="0.70899999"
     id="circle14"
     style="fill:#f9f9f9" /><circle
     cx="32.074001"
     cy="29.875471"
     r="0.70999998"
     id="circle15"
     style="fill:#f9f9f9" /><circle
     cx="34.116001"
     cy="29.250471"
     r="0.70999998"
     id="circle16"
     style="fill:#f9f9f9" /><circle
     cx="36.157001"
     cy="28.624472"
     r="0.70899999"
     id="circle17"
     style="fill:#f9f9f9" /><circle
     cx="38.199001"
     cy="27.999472"
     r="0.70999998"
     id="circle18"
     style="fill:#f9f9f9" /><circle
     cx="40.240002"
     cy="27.372473"
     r="0.70899999"
     id="circle19"
     style="fill:#f9f9f9" /><circle
     cx="42.282001"
     cy="26.747473"
     r="0.70999998"
     id="circle20"
     style="fill:#f9f9f9" /><circle
     cx="44.324001"
     cy="26.122473"
     r="0.70899999"
     id="circle21"
     style="fill:#f9f9f9" /><circle
     cx="46.365002"
     cy="25.496473"
     r="0.70899999"
     id="circle22"
     style="fill:#f9f9f9" /><circle
     cx="48.405998"
     cy="24.871473"
     r="0.70999998"
     id="circle23"
     style="fill:#f9f9f9" /><circle
     cx="69.893997"
     cy="21.609472"
     r="0.70899999"
     id="circle24"
     style="fill:#f9f9f9" /><circle
     cx="67.778999"
     cy="21.910471"
     r="0.70899999"
     id="circle25"
     style="fill:#f9f9f9" /><circle
     cx="65.666"
     cy="22.212473"
     r="0.70999998"
     id="circle26"
     style="fill:#f9f9f9" /><circle
     cx="63.551998"
     cy="22.513472"
     r="0.70899999"
     id="circle27"
     style="fill:#f9f9f9" /><circle
     cx="61.438"
     cy="22.815474"
     r="0.70899999"
     id="circle28"
     style="fill:#f9f9f9" /><circle
     cx="59.323002"
     cy="23.116472"
     r="0.70899999"
     id="circle29"
     style="fill:#f9f9f9" /><circle
     cx="57.209999"
     cy="23.417471"
     r="0.70899999"
     id="circle30"
     style="fill:#f9f9f9" /><circle
     cx="55.096001"
     cy="23.719473"
     r="0.70999998"
     id="circle31"
     style="fill:#f9f9f9" /><circle
     cx="52.981998"
     cy="24.020472"
     r="0.70999998"
     id="circle32"
     style="fill:#f9f9f9" /><circle
     cx="50.868"
     cy="24.321474"
     r="0.70999998"
     id="circle33"
     style="fill:#f9f9f9" /><path
     d="m 72.448,16.603472 c -0.107,0.024 -0.22,0.041 -0.336,0.048 -1.252,0.084 -2.522,-0.852 -2.832,-2.089 l -0.865,-3.464 c -0.14,-0.564 -0.063,-1.1229997 0.215,-1.5729997 0.321,-0.519 0.87,-0.847 1.551,-0.893 1.253,-0.085 2.522,0.852 2.832,2.0889997 l 0.864,3.464 c 0.14,0.564 0.064,1.123 -0.214,1.572 -0.266,0.43 -0.697,0.731 -1.215,0.846 z M 69.925,9.0464723 c -0.418,0.093 -0.766,0.333 -0.978,0.676 -0.225,0.3639997 -0.285,0.8199997 -0.169,1.2859997 l 0.865,3.465 c 0.267,1.068 1.363,1.879 2.443,1.805 0.547,-0.037 1,-0.299 1.258,-0.717 0.226,-0.363 0.284,-0.82 0.169,-1.286 l -0.863,-3.464 C 72.382,9.7414723 71.286,8.9314723 70.206,9.0054723 c -0.098,0.007 -0.191,0.021 -0.281,0.041 z"
     id="path33"
     style="fill:#f9f9f9" /><g
     id="g34"
     style="fill:#ffffff"
     transform="translate(0,-22.515528)"><path
       d="m 72.448,39.119 c -0.107,0.024 -0.22,0.041 -0.336,0.048 -1.252,0.084 -2.522,-0.852 -2.832,-2.089 l -0.865,-3.464 c -0.093,-0.374 -0.081,-0.742 0.011,-1.08 -0.317,0.41 -0.444,0.967 -0.294,1.568 l 0.864,3.464 c 0.288,1.154 1.468,2.027 2.638,1.948 0.474,-0.032 0.867,-0.222 1.155,-0.506 -0.108,0.046 -0.222,0.085 -0.341,0.111 z"
       id="path34"
       style="fill:#ffffff" /></g><path
     d="M 92.069,14.256472 C 89.087,0.88847227 65.181,3.2754723 45.651,7.6314723 26.122,11.987472 3.468,19.987472 6.451,33.355472 l 0.018,0.082 c 0.661,2.964 1.345,6.028 2.783,8.812 1.616,3.127 4.189,5.563 7.44,7.042 5.21,2.369 11.306,2.438 16.035,2.233 2.179,-0.096 4.455,-0.29 6.955,-0.597 1.23,-0.15 2.529,-0.33 3.857,-0.537 l 0.387,-0.058 c 0.565,-0.085 1.202,-0.181 1.852,-0.326 0.609,-0.136 1.231,-0.315 1.815,-0.569 0.369,-0.161 0.537,-0.583 0.394,-0.954 -0.65,-0.002 -1.221,-0.081 -1.583,-0.202 -0.88,0.29 -1.834,0.442 -2.699,0.573 l -0.393,0.059 c -1.314,0.204 -2.596,0.383 -3.811,0.531 -2.461,0.301 -4.698,0.493 -6.838,0.586 -4.562,0.197 -10.43,0.137 -15.351,-2.101 -2.942,-1.338 -5.27,-3.54 -6.732,-6.368 -1.348,-2.61 -2.011,-5.579 -2.651,-8.449 l -0.019,-0.081 c -2.856,-12.804 22.625,-20.495 38.067,-23.9399997 15.443,-3.445 41.776,-7.313 44.632,5.4909997 0.65,2.916 0.896,5.292 0.768,7.474 -0.155,2.685 -0.956,5.278 -2.312,7.499 -1.64,2.683 -4.112,5.073 -7.559,7.309 -5.189,3.364 -11.122,5.455 -15.132,6.735 -0.241,0.076 -0.485,0.16 -0.731,0.243 -1.012,0.345 -2.059,0.699 -3.04,0.679 -0.021,0 -0.038,0.01 -0.06,0.011 -0.069,0.428 -0.295,0.801 -0.616,1.067 0.12,0.239 0.358,0.411 0.646,0.417 1.245,0.025 2.471,-0.391 3.552,-0.758 0.237,-0.081 0.474,-0.16 0.705,-0.234 4.092,-1.307 10.149,-3.444 15.49,-6.905 3.638,-2.36 6.263,-4.905 8.021,-7.785 1.483,-2.429 2.358,-5.261 2.529,-8.189 0.135,-2.327 -0.119,-4.833 -0.801,-7.889 z"
     id="path35"
     style="fill:#f9f9f9" /></svg>
